ISO-10303-21;
HEADER;
FILE_DESCRIPTION(('independently authored untrimmed NURBS fixture'), '2;1');
FILE_NAME('shapr_untrimmed_nurbs_domain.step', '', (''), (''), 'synthetic fixture', '', '');
FILE_SCHEMA(('CONFIG_CONTROL_DESIGN'));
ENDSEC;
DATA;
#1 = ( LENGTH_UNIT() NAMED_UNIT(*) SI_UNIT(.MILLI.,.METRE.) );
#2 = ( NAMED_UNIT(*) PLANE_ANGLE_UNIT() SI_UNIT($,.RADIAN.) );
#3 = ( NAMED_UNIT(*) SI_UNIT($,.STERADIAN.) SOLID_ANGLE_UNIT() );
#4 = UNCERTAINTY_MEASURE_WITH_UNIT(LENGTH_MEASURE(9.99999999999999955E-7), #1, 'distance_accuracy_value', 'confusion accuracy');
#5 = ( GEOMETRIC_REPRESENTATION_CONTEXT(3) GLOBAL_UNCERTAINTY_ASSIGNED_CONTEXT((#4)) GLOBAL_UNIT_ASSIGNED_CONTEXT((#1,#2,#3)) REPRESENTATION_CONTEXT('Context3D','3D Context with UNIT and UNCERTAINTY') );
#6 = APPLICATION_CONTEXT('configuration controlled 3D design of mechanical parts and assemblies');
#7 = MECHANICAL_CONTEXT('', #6, 'mechanical');
#8 = APPLICATION_PROTOCOL_DEFINITION('international standard', 'config_control_design', 1994, #6);
#9 = PRODUCT('synthetic_prism', 'synthetic_prism', '', (#7));
#10 = PRODUCT_DEFINITION_FORMATION('', '', #9);
#11 = PRODUCT_DEFINITION_CONTEXT('part definition', #6, 'design');
#12 = PRODUCT_DEFINITION('design', '', #10, #11);
#13 = CARTESIAN_POINT('', (5.16000500000000018E-1, -1.86000499999999997E-1, 0.));
#14 = VERTEX_POINT('', #13);
#15 = CARTESIAN_POINT('', (2.48399950000000036E0, 2.64600050000000042E0, 0.));
#16 = VERTEX_POINT('', #15);
#17 = CARTESIAN_POINT('', (0., 0., 0.));
#18 = CARTESIAN_POINT('', (2.00000000000000000E0, -1.00000000000000000E0, 0.));
#19 = CARTESIAN_POINT('', (1.00000000000000000E0, 2.00000000000000000E0, 0.));
#20 = CARTESIAN_POINT('', (3.00000000000000000E0, 3.00000000000000000E0, 0.));
#21 = B_SPLINE_CURVE_WITH_KNOTS('', 3, (#17, #18, #19, #20), .UNSPECIFIED., .F., .F., (4, 4), (0., 1.00000000000000000E0), .UNSPECIFIED.);
#23 = EDGE_CURVE('', #14, #16, #21, .T.);
#24 = ORIENTED_EDGE('', *, *, #23, .F.);
#25 = CARTESIAN_POINT('', (2.48399950000000036E0, 2.64600050000000042E0, 0.));
#26 = DIRECTION('', (-5.70656284472379127E-1, -8.21189019040183577E-1, 0.));
#27 = VECTOR('', #26, 3.44865912029617672E0);
#28 = LINE('', #25, #27);
#29 = EDGE_CURVE('', #16, #14, #28, .T.);
#30 = ORIENTED_EDGE('', *, *, #29, .F.);
#31 = EDGE_LOOP('', (#30, #24));
#32 = FACE_OUTER_BOUND('', #31, .T.);
#33 = CARTESIAN_POINT('', (0., 0., 0.));
#34 = DIRECTION('', (0., 0., 1.00000000000000000E0));
#35 = DIRECTION('', (0., 1.00000000000000000E0, 0.));
#36 = AXIS2_PLACEMENT_3D('', #33, #34, #35);
#37 = PLANE('', #36);
#38 = ADVANCED_FACE('', (#32), #37, .F.);
#39 = CARTESIAN_POINT('', (5.16000500000000018E-1, -1.86000499999999997E-1, 2.00000000000000000E0));
#40 = VERTEX_POINT('', #39);
#41 = CARTESIAN_POINT('', (2.48399950000000036E0, 2.64600050000000042E0, 2.00000000000000000E0));
#42 = VERTEX_POINT('', #41);
#43 = CARTESIAN_POINT('', (0., 0., 2.00000000000000000E0));
#44 = CARTESIAN_POINT('', (2.00000000000000000E0, -1.00000000000000000E0, 2.00000000000000000E0));
#45 = CARTESIAN_POINT('', (1.00000000000000000E0, 2.00000000000000000E0, 2.00000000000000000E0));
#46 = CARTESIAN_POINT('', (3.00000000000000000E0, 3.00000000000000000E0, 2.00000000000000000E0));
#47 = B_SPLINE_CURVE_WITH_KNOTS('', 3, (#43, #44, #45, #46), .UNSPECIFIED., .F., .F., (4, 4), (0., 1.00000000000000000E0), .UNSPECIFIED.);
#49 = EDGE_CURVE('', #40, #42, #47, .T.);
#50 = ORIENTED_EDGE('', *, *, #49, .T.);
#51 = CARTESIAN_POINT('', (2.48399950000000036E0, 2.64600050000000042E0, 2.00000000000000000E0));
#52 = DIRECTION('', (-5.70656284472379127E-1, -8.21189019040183577E-1, 0.));
#53 = VECTOR('', #52, 3.44865912029617672E0);
#54 = LINE('', #51, #53);
#55 = EDGE_CURVE('', #42, #40, #54, .T.);
#56 = ORIENTED_EDGE('', *, *, #55, .T.);
#57 = EDGE_LOOP('', (#50, #56));
#58 = FACE_OUTER_BOUND('', #57, .T.);
#59 = CARTESIAN_POINT('', (0., 0., 2.00000000000000000E0));
#60 = DIRECTION('', (0., 0., 1.00000000000000000E0));
#61 = DIRECTION('', (0., 1.00000000000000000E0, 0.));
#62 = AXIS2_PLACEMENT_3D('', #59, #60, #61);
#63 = PLANE('', #62);
#64 = ADVANCED_FACE('', (#58), #63, .T.);
#65 = ORIENTED_EDGE('', *, *, #23, .T.);
#66 = CARTESIAN_POINT('', (2.48399950000000036E0, 2.64600050000000042E0, 0.));
#67 = DIRECTION('', (0., 0., 1.00000000000000000E0));
#68 = VECTOR('', #67, 2.00000000000000000E0);
#69 = LINE('', #66, #68);
#70 = EDGE_CURVE('', #16, #42, #69, .T.);
#71 = ORIENTED_EDGE('', *, *, #70, .T.);
#72 = ORIENTED_EDGE('', *, *, #49, .F.);
#73 = CARTESIAN_POINT('', (5.16000500000000018E-1, -1.86000499999999997E-1, 0.));
#74 = DIRECTION('', (0., 0., 1.00000000000000000E0));
#75 = VECTOR('', #74, 2.00000000000000000E0);
#76 = LINE('', #73, #75);
#77 = EDGE_CURVE('', #14, #40, #76, .T.);
#78 = ORIENTED_EDGE('', *, *, #77, .F.);
#79 = EDGE_LOOP('', (#65, #71, #72, #78));
#80 = FACE_OUTER_BOUND('', #79, .T.);
#81 = CARTESIAN_POINT('', (0., 0., 0.));
#82 = CARTESIAN_POINT('', (0., 0., 2.00000000000000000E0));
#83 = CARTESIAN_POINT('', (2.00000000000000000E0, -1.00000000000000000E0, 0.));
#84 = CARTESIAN_POINT('', (2.00000000000000000E0, -1.00000000000000000E0, 2.00000000000000000E0));
#85 = CARTESIAN_POINT('', (1.00000000000000000E0, 2.00000000000000000E0, 0.));
#86 = CARTESIAN_POINT('', (1.00000000000000000E0, 2.00000000000000000E0, 2.00000000000000000E0));
#87 = CARTESIAN_POINT('', (3.00000000000000000E0, 3.00000000000000000E0, 0.));
#88 = CARTESIAN_POINT('', (3.00000000000000000E0, 3.00000000000000000E0, 2.00000000000000000E0));
#89 = B_SPLINE_SURFACE_WITH_KNOTS('', 3, 1, ((#81, #82), (#83, #84), (#85, #86), (#87, #88)), .UNSPECIFIED., .F., .F., .F., (4, 4), (2, 2), (0., 1.00000000000000000E0), (0., 1.00000000000000000E0), .UNSPECIFIED.);
#90 = ADVANCED_FACE('', (#80), #89, .T.);
#91 = ORIENTED_EDGE('', *, *, #29, .T.);
#92 = ORIENTED_EDGE('', *, *, #77, .T.);
#93 = ORIENTED_EDGE('', *, *, #55, .F.);
#94 = ORIENTED_EDGE('', *, *, #70, .F.);
#95 = EDGE_LOOP('', (#91, #92, #93, #94));
#96 = FACE_OUTER_BOUND('', #95, .T.);
#97 = CARTESIAN_POINT('', (4.35128597908632060E-1, -3.02377239822863736E-1, 0.));
#98 = DIRECTION('', (8.21189019040183577E-1, -5.70656284472379127E-1, 0.));
#99 = DIRECTION('', (0., 0., 1.00000000000000000E0));
#100 = AXIS2_PLACEMENT_3D('', #97, #98, #99);
#101 = PLANE('', #100);
#102 = ADVANCED_FACE('', (#96), #101, .F.);
#103 = CLOSED_SHELL('', (#38, #64, #90, #102));
#104 = MANIFOLD_SOLID_BREP('', #103);
#105 = ADVANCED_BREP_SHAPE_REPRESENTATION('synthetic prism', (#104), #5);
#106 = PRODUCT_DEFINITION_SHAPE('','',#12);
#107 = SHAPE_DEFINITION_REPRESENTATION(#106, #105);
ENDSEC;
END-ISO-10303-21;
