ISO-10303-21;
HEADER;
FILE_DESCRIPTION(('remus STEP export'), '2;1');
FILE_NAME('output.stp', '2024-01-01T00:00:00', (''), (''), 'remus', 'remus', '');
FILE_SCHEMA(('CONFIG_CONTROL_DESIGN'));
ENDSEC;
DATA;
#1 = ( LENGTH_UNIT() NAMED_UNIT(*) SI_UNIT(.MILLI.,.METRE.) );
#2 = ( NAMED_UNIT(*) PLANE_ANGLE_UNIT() SI_UNIT($,.RADIAN.) );
#3 = ( NAMED_UNIT(*) SI_UNIT($,.STERADIAN.) SOLID_ANGLE_UNIT() );
#4 = UNCERTAINTY_MEASURE_WITH_UNIT(LENGTH_MEASURE(1.E-07), #1, 'distance_accuracy_value', 'confusion accuracy');
#5 = ( GEOMETRIC_REPRESENTATION_CONTEXT(3) GLOBAL_UNCERTAINTY_ASSIGNED_CONTEXT((#4)) GLOBAL_UNIT_ASSIGNED_CONTEXT((#1,#2,#3)) REPRESENTATION_CONTEXT('Context3D','3D Context with UNIT and UNCERTAINTY') );
#6 = APPLICATION_CONTEXT('configuration controlled 3D design of mechanical parts and assemblies');
#7 = MECHANICAL_CONTEXT('', #6, 'mechanical');
#8 = APPLICATION_PROTOCOL_DEFINITION('international standard', 'config_control_design', 1994, #6);
#9 = PRODUCT('remus_solid', 'remus_solid', '', (#7));
#10 = PRODUCT_DEFINITION_FORMATION('', '', #9);
#11 = PRODUCT_DEFINITION_CONTEXT('part definition', #6, 'design');
#12 = PRODUCT_DEFINITION('design', '', #10, #11);
#13 = CARTESIAN_POINT('', (0., 0., 0.));
#14 = DIRECTION('', (0., 0., -1.00000000000000000E0));
#15 = DIRECTION('', (0., -1.00000000000000000E0, 0.));
#16 = AXIS2_PLACEMENT_3D('', #13, #14, #15);
#17 = PLANE('', #16);
#18 = CARTESIAN_POINT('', (0., 0., 4.00000000000000000E0));
#19 = DIRECTION('', (0., 0., 1.00000000000000000E0));
#20 = DIRECTION('', (0., 1.00000000000000000E0, 0.));
#21 = AXIS2_PLACEMENT_3D('', #18, #19, #20);
#22 = PLANE('', #21);
#23 = CARTESIAN_POINT('', (0., 0., 0.));
#24 = DIRECTION('', (0., -1.00000000000000000E0, 0.));
#25 = DIRECTION('', (0., 0., 1.00000000000000000E0));
#26 = AXIS2_PLACEMENT_3D('', #23, #24, #25);
#27 = PLANE('', #26);
#28 = CARTESIAN_POINT('', (0., 3.00000000000000000E0, 0.));
#29 = DIRECTION('', (0., 1.00000000000000000E0, 0.));
#30 = DIRECTION('', (0., 0., -1.00000000000000000E0));
#31 = AXIS2_PLACEMENT_3D('', #28, #29, #30);
#32 = PLANE('', #31);
#33 = CARTESIAN_POINT('', (0., 0., 0.));
#34 = DIRECTION('', (-1.00000000000000000E0, 0., 0.));
#35 = DIRECTION('', (0., 0., -1.00000000000000000E0));
#36 = AXIS2_PLACEMENT_3D('', #33, #34, #35);
#37 = PLANE('', #36);
#38 = CARTESIAN_POINT('', (2.00000000000000000E0, 0., 0.));
#39 = DIRECTION('', (1.00000000000000000E0, 0., 0.));
#40 = DIRECTION('', (0., 0., 1.00000000000000000E0));
#41 = AXIS2_PLACEMENT_3D('', #38, #39, #40);
#42 = PLANE('', #41);
#43 = CARTESIAN_POINT('', (0., 0., 0.));
#44 = VERTEX_POINT('', #43);
#45 = CARTESIAN_POINT('', (2.00000000000000000E0, 0., 0.));
#46 = VERTEX_POINT('', #45);
#47 = CARTESIAN_POINT('', (0., 0., 0.));
#48 = DIRECTION('', (1.00000000000000000E0, 0., 0.));
#49 = VECTOR('', #48, 2.00000000000000000E0);
#50 = LINE('', #47, #49);
#51 = EDGE_CURVE('', #44, #46, #50, .T.);
#52 = ORIENTED_EDGE('', *, *, #51, .F.);
#53 = CARTESIAN_POINT('', (0., 3.00000000000000000E0, 0.));
#54 = VERTEX_POINT('', #53);
#55 = CARTESIAN_POINT('', (0., 3.00000000000000000E0, 0.));
#56 = DIRECTION('', (0., -1.00000000000000000E0, 0.));
#57 = VECTOR('', #56, 3.00000000000000000E0);
#58 = LINE('', #55, #57);
#59 = EDGE_CURVE('', #54, #44, #58, .T.);
#60 = ORIENTED_EDGE('', *, *, #59, .F.);
#61 = CARTESIAN_POINT('', (2.00000000000000000E0, 3.00000000000000000E0, 0.));
#62 = VERTEX_POINT('', #61);
#63 = CARTESIAN_POINT('', (2.00000000000000000E0, 3.00000000000000000E0, 0.));
#64 = DIRECTION('', (-1.00000000000000000E0, 0., 0.));
#65 = VECTOR('', #64, 2.00000000000000000E0);
#66 = LINE('', #63, #65);
#67 = EDGE_CURVE('', #62, #54, #66, .T.);
#68 = ORIENTED_EDGE('', *, *, #67, .F.);
#69 = CARTESIAN_POINT('', (2.00000000000000000E0, 0., 0.));
#70 = DIRECTION('', (0., 1.00000000000000000E0, 0.));
#71 = VECTOR('', #70, 3.00000000000000000E0);
#72 = LINE('', #69, #71);
#73 = EDGE_CURVE('', #46, #62, #72, .T.);
#74 = ORIENTED_EDGE('', *, *, #73, .F.);
#75 = EDGE_LOOP('', (#52, #60, #68, #74));
#76 = FACE_OUTER_BOUND('', #75, .T.);
#77 = ADVANCED_FACE('', (#76), #17, .T.);
#78 = CARTESIAN_POINT('', (0., 0., 4.00000000000000000E0));
#79 = VERTEX_POINT('', #78);
#80 = CARTESIAN_POINT('', (2.00000000000000000E0, 0., 4.00000000000000000E0));
#81 = VERTEX_POINT('', #80);
#82 = CARTESIAN_POINT('', (0., 0., 4.00000000000000000E0));
#83 = DIRECTION('', (1.00000000000000000E0, 0., 0.));
#84 = VECTOR('', #83, 2.00000000000000000E0);
#85 = LINE('', #82, #84);
#86 = EDGE_CURVE('', #79, #81, #85, .T.);
#87 = ORIENTED_EDGE('', *, *, #86, .T.);
#88 = CARTESIAN_POINT('', (2.00000000000000000E0, 3.00000000000000000E0, 4.00000000000000000E0));
#89 = VERTEX_POINT('', #88);
#90 = CARTESIAN_POINT('', (2.00000000000000000E0, 0., 4.00000000000000000E0));
#91 = DIRECTION('', (0., 1.00000000000000000E0, 0.));
#92 = VECTOR('', #91, 3.00000000000000000E0);
#93 = LINE('', #90, #92);
#94 = EDGE_CURVE('', #81, #89, #93, .T.);
#95 = ORIENTED_EDGE('', *, *, #94, .T.);
#96 = CARTESIAN_POINT('', (0., 3.00000000000000000E0, 4.00000000000000000E0));
#97 = VERTEX_POINT('', #96);
#98 = CARTESIAN_POINT('', (2.00000000000000000E0, 3.00000000000000000E0, 4.00000000000000000E0));
#99 = DIRECTION('', (-1.00000000000000000E0, 0., 0.));
#100 = VECTOR('', #99, 2.00000000000000000E0);
#101 = LINE('', #98, #100);
#102 = EDGE_CURVE('', #89, #97, #101, .T.);
#103 = ORIENTED_EDGE('', *, *, #102, .T.);
#104 = CARTESIAN_POINT('', (0., 3.00000000000000000E0, 4.00000000000000000E0));
#105 = DIRECTION('', (0., -1.00000000000000000E0, 0.));
#106 = VECTOR('', #105, 3.00000000000000000E0);
#107 = LINE('', #104, #106);
#108 = EDGE_CURVE('', #97, #79, #107, .T.);
#109 = ORIENTED_EDGE('', *, *, #108, .T.);
#110 = EDGE_LOOP('', (#87, #95, #103, #109));
#111 = FACE_OUTER_BOUND('', #110, .T.);
#112 = ADVANCED_FACE('', (#111), #22, .T.);
#113 = ORIENTED_EDGE('', *, *, #51, .T.);
#114 = CARTESIAN_POINT('', (2.00000000000000000E0, 0., 0.));
#115 = DIRECTION('', (0., 0., 1.00000000000000000E0));
#116 = VECTOR('', #115, 4.00000000000000000E0);
#117 = LINE('', #114, #116);
#118 = EDGE_CURVE('', #46, #81, #117, .T.);
#119 = ORIENTED_EDGE('', *, *, #118, .T.);
#120 = ORIENTED_EDGE('', *, *, #86, .F.);
#121 = CARTESIAN_POINT('', (0., 0., 0.));
#122 = DIRECTION('', (0., 0., 1.00000000000000000E0));
#123 = VECTOR('', #122, 4.00000000000000000E0);
#124 = LINE('', #121, #123);
#125 = EDGE_CURVE('', #44, #79, #124, .T.);
#126 = ORIENTED_EDGE('', *, *, #125, .F.);
#127 = EDGE_LOOP('', (#113, #119, #120, #126));
#128 = FACE_OUTER_BOUND('', #127, .T.);
#129 = ADVANCED_FACE('', (#128), #27, .T.);
#130 = ORIENTED_EDGE('', *, *, #67, .T.);
#131 = CARTESIAN_POINT('', (0., 3.00000000000000000E0, 0.));
#132 = DIRECTION('', (0., 0., 1.00000000000000000E0));
#133 = VECTOR('', #132, 4.00000000000000000E0);
#134 = LINE('', #131, #133);
#135 = EDGE_CURVE('', #54, #97, #134, .T.);
#136 = ORIENTED_EDGE('', *, *, #135, .T.);
#137 = ORIENTED_EDGE('', *, *, #102, .F.);
#138 = CARTESIAN_POINT('', (2.00000000000000000E0, 3.00000000000000000E0, 0.));
#139 = DIRECTION('', (0., 0., 1.00000000000000000E0));
#140 = VECTOR('', #139, 4.00000000000000000E0);
#141 = LINE('', #138, #140);
#142 = EDGE_CURVE('', #62, #89, #141, .T.);
#143 = ORIENTED_EDGE('', *, *, #142, .F.);
#144 = EDGE_LOOP('', (#130, #136, #137, #143));
#145 = FACE_OUTER_BOUND('', #144, .T.);
#146 = ADVANCED_FACE('', (#145), #32, .T.);
#147 = ORIENTED_EDGE('', *, *, #59, .T.);
#148 = ORIENTED_EDGE('', *, *, #125, .T.);
#149 = ORIENTED_EDGE('', *, *, #108, .F.);
#150 = ORIENTED_EDGE('', *, *, #135, .F.);
#151 = EDGE_LOOP('', (#147, #148, #149, #150));
#152 = FACE_OUTER_BOUND('', #151, .T.);
#153 = ADVANCED_FACE('', (#152), #37, .T.);
#154 = ORIENTED_EDGE('', *, *, #73, .T.);
#155 = ORIENTED_EDGE('', *, *, #142, .T.);
#156 = ORIENTED_EDGE('', *, *, #94, .F.);
#157 = ORIENTED_EDGE('', *, *, #118, .F.);
#158 = EDGE_LOOP('', (#154, #155, #156, #157));
#159 = FACE_OUTER_BOUND('', #158, .T.);
#160 = ADVANCED_FACE('', (#159), #42, .T.);
#161 = CLOSED_SHELL('', (#77, #112, #129, #146, #153, #160));
#162 = MANIFOLD_SOLID_BREP('', #161);
#163 = ADVANCED_BREP_SHAPE_REPRESENTATION('remus export', (#162), #5);
#164 = PRODUCT_DEFINITION_SHAPE('','',#12);
#165 = SHAPE_DEFINITION_REPRESENTATION(#164, #163);
ENDSEC;
END-ISO-10303-21;
